<svg width="69" height="73" viewBox="0 0 69 73" fill="none" xmlns="http://www.w3.org/2000/svg">
  <g filter="url(#filter0_d_38_96)">
    <rect x="12" y="8.18945" width="45" height="48" rx="22.5" fill="white" shape-rendering="crispEdges" />
    <path fill-rule="evenodd" clip-rule="evenodd" d="M29.965 21.2555C31.138 21.2015 31.512 21.1895 34.5 21.1895C37.488 21.1895 37.862 21.2025 39.034 21.2555C40.206 21.3085 41.006 21.4955 41.706 21.7665C42.439 22.0435 43.104 22.4765 43.654 23.0365C44.214 23.5855 44.646 24.2495 44.922 24.9835C45.194 25.6835 45.38 26.4835 45.434 27.6535C45.488 28.8285 45.5 29.2025 45.5 32.1895C45.5 35.1775 45.487 35.5515 45.434 36.7245C45.381 37.8945 45.194 38.6945 44.922 39.3945C44.646 40.1285 44.2133 40.7937 43.654 41.3435C43.104 41.9035 42.439 42.3355 41.706 42.6115C41.006 42.8835 40.206 43.0695 39.036 43.1235C37.862 43.1775 37.488 43.1895 34.5 43.1895C31.512 43.1895 31.138 43.1765 29.965 43.1235C28.795 43.0705 27.995 42.8835 27.295 42.6115C26.5609 42.3354 25.8958 41.9027 25.346 41.3435C24.7864 40.7941 24.3533 40.1293 24.077 39.3955C23.806 38.6955 23.62 37.8955 23.566 36.7255C23.512 35.5505 23.5 35.1765 23.5 32.1895C23.5 29.2015 23.513 28.8275 23.566 27.6555C23.619 26.4835 23.806 25.6835 24.077 24.9835C24.3537 24.2495 24.7871 23.5848 25.347 23.0355C25.896 22.476 26.5605 22.0429 27.294 21.7665C27.994 21.4955 28.794 21.3095 29.964 21.2555H29.965ZM38.945 23.2355C37.785 23.1825 37.437 23.1715 34.5 23.1715C31.563 23.1715 31.215 23.1825 30.055 23.2355C28.982 23.2845 28.4 23.4635 28.012 23.6145C27.499 23.8145 27.132 24.0515 26.747 24.4365C26.382 24.7915 26.1012 25.2237 25.925 25.7015C25.774 26.0895 25.595 26.6715 25.546 27.7445C25.493 28.9045 25.482 29.2525 25.482 32.1895C25.482 35.1265 25.493 35.4745 25.546 36.6345C25.595 37.7075 25.774 38.2895 25.925 38.6775C26.101 39.1545 26.382 39.5875 26.747 39.9425C27.102 40.3075 27.535 40.5885 28.012 40.7645C28.4 40.9155 28.982 41.0945 30.055 41.1435C31.215 41.1965 31.562 41.2075 34.5 41.2075C37.438 41.2075 37.785 41.1965 38.945 41.1435C40.018 41.0945 40.6 40.9155 40.988 40.7645C41.501 40.5645 41.868 40.3275 42.253 39.9425C42.618 39.5875 42.899 39.1545 43.075 38.6775C43.226 38.2895 43.405 37.7075 43.454 36.6345C43.507 35.4745 43.518 35.1265 43.518 32.1895C43.518 29.2525 43.507 28.9045 43.454 27.7445C43.405 26.6715 43.226 26.0895 43.075 25.7015C42.875 25.1885 42.638 24.8215 42.253 24.4365C41.8979 24.0715 41.4657 23.7907 40.988 23.6145C40.6 23.4635 40.018 23.2845 38.945 23.2355ZM33.095 35.5805C33.8797 35.9071 34.7534 35.9512 35.5669 35.7052C36.3805 35.4592 37.0834 34.9384 37.5556 34.2317C38.0278 33.525 38.2401 32.6763 38.156 31.8306C38.072 30.9848 37.697 30.1944 37.095 29.5945C36.7112 29.2109 36.2472 28.9173 35.7363 28.7346C35.2255 28.5519 34.6804 28.4848 34.1405 28.5381C33.6006 28.5913 33.0792 28.7636 32.6138 29.0426C32.1485 29.3215 31.7507 29.7002 31.4493 30.1513C31.1479 30.6024 30.9502 31.1147 30.8705 31.6514C30.7908 32.1881 30.8312 32.7357 30.9885 33.255C31.1459 33.7742 31.4165 34.2521 31.7807 34.6542C32.145 35.0563 32.5938 35.3726 33.095 35.5805ZM30.502 28.1915C31.027 27.6664 31.6503 27.25 32.3363 26.9658C33.0223 26.6817 33.7575 26.5354 34.5 26.5354C35.2425 26.5354 35.9777 26.6817 36.6637 26.9658C37.3497 27.25 37.973 27.6664 38.498 28.1915C39.023 28.7165 39.4395 29.3398 39.7236 30.0258C40.0078 30.7117 40.154 31.447 40.154 32.1895C40.154 32.932 40.0078 33.6672 39.7236 34.3532C39.4395 35.0391 39.023 35.6624 38.498 36.1875C37.4377 37.2478 35.9995 37.8435 34.5 37.8435C33.0005 37.8435 31.5623 37.2478 30.502 36.1875C29.4417 35.1271 28.846 33.689 28.846 32.1895C28.846 30.6899 29.4417 29.2518 30.502 28.1915ZM41.408 27.3775C41.5381 27.2547 41.6423 27.1071 41.7143 26.9434C41.7863 26.7797 41.8248 26.6032 41.8274 26.4244C41.83 26.2455 41.7967 26.068 41.7295 25.9023C41.6622 25.7365 41.5624 25.586 41.436 25.4595C41.3095 25.333 41.1589 25.2332 40.9932 25.166C40.8275 25.0987 40.6499 25.0654 40.4711 25.068C40.2922 25.0706 40.1157 25.1091 39.952 25.1811C39.7883 25.2532 39.6407 25.3573 39.518 25.4875C39.2793 25.7405 39.1486 26.0766 39.1537 26.4244C39.1588 26.7722 39.2992 27.1043 39.5452 27.3503C39.7911 27.5963 40.1233 27.7367 40.4711 27.7418C40.8189 27.7468 41.155 27.6161 41.408 27.3775Z" fill="#1D1D1D" />
  </g>
  <defs>
    <filter id="filter0_d_38_96" x="0" y="0.189453" width="69" height="72" filterUnits="userSpaceOnUse" color-interpolation-filters="sRGB">
      <feFlood flood-opacity="0" result="BackgroundImageFix" />
      <feColorMatrix in="SourceAlpha" type="matrix" values="0 0 0 0 0 0 0 0 0 0 0 0 0 0 0 0 0 0 127 0" result="hardAlpha" />
      <feOffset dy="4" />
      <feGaussianBlur stdDeviation="6" />
      <feComposite in2="hardAlpha" operator="out" />
      <feColorMatrix type="matrix" values="0 0 0 0 0.1125 0 0 0 0 0.1125 0 0 0 0 0.1125 0 0 0 0.15 0" />
      <feBlend mode="normal" in2="BackgroundImageFix" result="effect1_dropShadow_38_96" />
      <feBlend mode="normal" in="SourceGraphic" in2="effect1_dropShadow_38_96" result="shape" />
    </filter>
  </defs>
</svg>