<svg width="69" height="73" viewBox="0 0 69 73" fill="none" xmlns="http://www.w3.org/2000/svg">
  <g filter="url(#filter0_d_38_92)">
    <rect x="12" y="8.18945" width="45" height="48" rx="22.5" fill="white" shape-rendering="crispEdges" />
    <path d="M45.853 25.1497C45.018 25.5197 44.121 25.7697 43.178 25.8827C44.151 25.3005 44.8789 24.3842 45.226 23.3047C44.3118 23.8477 43.3113 24.2299 42.268 24.4347C41.5664 23.6856 40.6371 23.189 39.6243 23.0222C38.6116 22.8553 37.5721 23.0275 36.6672 23.512C35.7624 23.9964 35.0428 24.7661 34.6202 25.7014C34.1975 26.6368 34.0955 27.6855 34.33 28.6847C32.4777 28.5917 30.6656 28.1103 29.0114 27.2716C27.3572 26.433 25.8978 25.2559 24.728 23.8167C24.328 24.5067 24.098 25.3067 24.098 26.1587C24.0976 26.9257 24.2864 27.681 24.6479 28.3575C25.0093 29.0339 25.5322 29.6108 26.17 30.0367C25.4303 30.0132 24.7069 29.8133 24.06 29.4537V29.5137C24.0599 30.5895 24.432 31.6321 25.1132 32.4647C25.7943 33.2973 26.7426 33.8687 27.797 34.0817C27.1108 34.2674 26.3913 34.2948 25.693 34.1617C25.9905 35.0873 26.57 35.8967 27.3504 36.4766C28.1307 37.0565 29.0729 37.3779 30.045 37.3957C28.3948 38.6911 26.3569 39.3938 24.259 39.3907C23.8874 39.3908 23.5161 39.3691 23.147 39.3257C25.2765 40.6949 27.7553 41.4215 30.287 41.4187C38.857 41.4187 43.542 34.3207 43.542 28.1647C43.542 27.9647 43.537 27.7627 43.528 27.5627C44.4393 26.9037 45.2259 26.0876 45.851 25.1527L45.853 25.1497Z" fill="#1D1D1D" />
  </g>
  <defs>
    <filter id="filter0_d_38_92" x="0" y="0.189453" width="69" height="72" filterUnits="userSpaceOnUse" color-interpolation-filters="sRGB">
      <feFlood flood-opacity="0" result="BackgroundImageFix" />
      <feColorMatrix in="SourceAlpha" type="matrix" values="0 0 0 0 0 0 0 0 0 0 0 0 0 0 0 0 0 0 127 0" result="hardAlpha" />
      <feOffset dy="4" />
      <feGaussianBlur stdDeviation="6" />
      <feComposite in2="hardAlpha" operator="out" />
      <feColorMatrix type="matrix" values="0 0 0 0 0.1125 0 0 0 0 0.1125 0 0 0 0 0.1125 0 0 0 0.15 0" />
      <feBlend mode="normal" in2="BackgroundImageFix" result="effect1_dropShadow_38_92" />
      <feBlend mode="normal" in="SourceGraphic" in2="effect1_dropShadow_38_92" result="shape" />
    </filter>
  </defs>
</svg>