<svg width="47" height="48" viewBox="0 0 47 48" fill="none" xmlns="http://www.w3.org/2000/svg">
  <path d="M19.0996 11.4822C19.5835 11.4822 20.0479 11.2912 20.3917 10.9507C20.7355 10.6102 20.9309 10.1477 20.9356 9.66387C20.9403 9.1797 20.7536 8.71326 20.4161 8.36611C20.0785 8.01895 19.6175 7.81919 19.1334 7.8103M18.941 15.1364C18.4571 15.1364 17.9928 14.9454 17.649 14.6049C17.3052 14.2644 17.1097 13.802 17.1051 13.3181C17.1003 12.8339 17.2871 12.3675 17.6246 12.0204C17.9621 11.6732 18.4231 11.4734 18.9072 11.4646M19.0996 18.8083C19.5835 18.8083 20.0479 18.6173 20.3917 18.2768C20.7355 17.9363 20.9309 17.4739 20.9356 16.99C20.9403 16.5058 20.7536 16.0394 20.4161 15.6922C20.0785 15.3451 19.6175 15.1453 19.1334 15.1364M26.4434 11.4822C26.9273 11.4822 27.3916 11.2912 27.7354 10.9507C28.0792 10.6102 28.2747 10.1477 28.2793 9.66387C28.2841 9.1797 28.0973 8.71326 27.7598 8.36611C27.4223 8.01895 26.9613 7.81919 26.4772 7.8103M26.2848 15.1364C25.8009 15.1364 25.3366 14.9454 24.9928 14.6049C24.649 14.2644 24.4535 13.802 24.4488 13.3181C24.4441 12.8339 24.6308 12.3675 24.9683 12.0204C25.3059 11.6732 25.7669 11.4734 26.251 11.4646M26.4434 18.8083C26.9273 18.8083 27.3916 18.6173 27.7354 18.2768C28.0792 17.9363 28.2747 17.4739 28.2793 16.99C28.2841 16.5058 28.0973 16.0394 27.7598 15.6922C27.4223 15.3451 26.9613 15.1453 26.4772 15.1364M12.3243 11.4822C12.8082 11.4822 13.2725 11.2912 13.6163 10.9507C13.9601 10.6102 14.1556 10.1477 14.1602 9.66387C14.165 9.17995 13.9784 8.71373 13.6412 8.36662C13.304 8.01951 12.8434 7.81957 12.3595 7.8103M12.1671 15.1364C11.6833 15.1364 11.2189 14.9454 10.8751 14.6049C10.5313 14.2644 10.3358 13.802 10.3312 13.3181C10.3265 12.8342 10.513 12.368 10.8502 12.0209C11.1874 11.6738 11.648 11.4738 12.1319 11.4646M12.3243 18.8083C12.8082 18.8083 13.2725 18.6173 13.6163 18.2768C13.9601 17.9363 14.1556 17.4739 14.1602 16.99C14.165 16.5061 13.9784 16.0399 13.6412 15.6927C13.304 15.3456 12.8434 15.1457 12.3595 15.1364" stroke="#FAA41A" stroke-linecap="round" stroke-linejoin="round" />
  <path d="M13.0396 40.484H26.2554V36.113C23.4398 37.3556 21.7992 37.5495 19.5168 37.5965C16.663 37.6552 14.7286 37.1617 13.0396 36.7387V40.484Z" stroke="#383747" stroke-linecap="round" stroke-linejoin="round" />
  <path d="M36.2811 24.6599C33.8136 33.8749 24.3827 39.343 15.1678 36.874C12.2434 36.0932 9.57664 34.5551 7.43636 32.4149C5.29608 30.2746 3.75798 27.6078 2.97717 24.6834L36.2811 24.6599Z" fill="#FAA41A" stroke="#383747" stroke-linecap="round" stroke-linejoin="round" />
  <path d="M2.96835 21.7148H36.2869V24.739H2.96835V21.7148Z" stroke="#383747" stroke-linecap="round" stroke-linejoin="round" />
  <path d="M24.49 21.7061C35.9462 22.1585 33.066 13.9952 41.5333 13.2579C42.3705 13.1844 42.8111 13.1683 43.9861 13.2432L44.0302 13.2285C42.5688 12.359 39.8751 10.8873 37.6265 11.5115C36.4764 11.8317 34.6846 13.0684 33.4846 15.4257C30.4634 22.041 27.5215 21.6929 25.1274 21.7046L24.49 21.7061Z" stroke="#383747" stroke-linecap="round" stroke-linejoin="round" />
  <path d="M31.5399 27.2551C30.5001 30.4276 27.7168 32.6308 24.4855 33.23" stroke="white" stroke-linecap="round" stroke-linejoin="round" />
</svg>