<svg width="16" height="18" viewBox="0 0 16 18" fill="none" xmlns="http://www.w3.org/2000/svg">
  <path d="M14.4 0.708862H5.6C5.30826 0.708862 5.02847 0.836796 4.82218 1.06452C4.61589 1.29224 4.5 1.6011 4.5 1.92315H14.4V16.4946H5.6V10.5446H4.5V16.4946C4.5 16.8166 4.61589 17.1255 4.82218 17.3532C5.02847 17.5809 5.30826 17.7089 5.6 17.7089H14.4C14.6917 17.7089 14.9715 17.5809 15.1778 17.3532C15.3841 17.1255 15.5 16.8166 15.5 16.4946V1.92315C15.5 1.6011 15.3841 1.29224 15.1778 1.06452C14.9715 0.836796 14.6917 0.708862 14.4 0.708862Z" fill="#1D1D1D" />
  <path d="M8.02795 11.5522C7.96293 11.6111 7.91012 11.6837 7.87284 11.7652C7.83556 11.8468 7.81461 11.9356 7.81131 12.0261C7.808 12.1167 7.82241 12.2069 7.85364 12.2913C7.88487 12.3757 7.93223 12.4523 7.99276 12.5163C8.05329 12.5804 8.12568 12.6305 8.20539 12.6636C8.28509 12.6966 8.37039 12.7119 8.45593 12.7084C8.54147 12.7049 8.62541 12.6827 8.70247 12.6432C8.77952 12.6038 8.84805 12.5479 8.90373 12.4791L12.5 8.67301L8.90994 4.86693C8.79112 4.75924 8.63828 4.70296 8.48195 4.70935C8.32563 4.71574 8.17735 4.78433 8.06673 4.9014C7.95611 5.01847 7.89131 5.1754 7.88527 5.34084C7.87923 5.50628 7.93241 5.66804 8.03416 5.7938L10.1273 7.96307H1.12112C0.956387 7.96307 0.798403 8.03232 0.681921 8.1556C0.565439 8.27888 0.5 8.44608 0.5 8.62042C0.5 8.79476 0.565439 8.96196 0.681921 9.08524C0.798403 9.20852 0.956387 9.27777 1.12112 9.27777H10.1273L8.02795 11.5522Z" fill="#1D1D1D" />
</svg>