<svg width="168" height="48" viewBox="0 0 168 48" fill="none" xmlns="http://www.w3.org/2000/svg">
<path d="M2.684 39.1244V22.3244H6.284V35.8844H13.892V39.1244H2.684ZM22.3139 39.3644C20.9379 39.3644 19.7299 39.0844 18.6899 38.5244C17.6659 37.9644 16.8659 37.1964 16.2899 36.2204C15.7299 35.2444 15.4499 34.1324 15.4499 32.8844C15.4499 31.8924 15.6099 30.9884 15.9299 30.1724C16.2499 29.3404 16.6979 28.6284 17.2739 28.0364C17.8499 27.4444 18.5299 26.9884 19.3139 26.6684C20.1139 26.3324 20.9859 26.1644 21.9299 26.1644C22.7939 26.1644 23.5859 26.3244 24.3059 26.6444C25.0419 26.9484 25.6739 27.3884 26.2019 27.9644C26.7459 28.5244 27.1619 29.1884 27.4499 29.9564C27.7379 30.7244 27.8739 31.5644 27.8579 32.4764L27.8339 33.5324H17.6339L17.0819 31.4204H25.0259L24.6179 31.8524V31.3484C24.5859 30.9004 24.4419 30.5084 24.1859 30.1724C23.9459 29.8364 23.6339 29.5724 23.2499 29.3804C22.8659 29.1724 22.4419 29.0684 21.9779 29.0684C21.2579 29.0684 20.6499 29.2124 20.1539 29.5004C19.6739 29.7724 19.3059 30.1724 19.0499 30.7004C18.8099 31.2124 18.6899 31.8524 18.6899 32.6204C18.6899 33.3724 18.8499 34.0364 19.1699 34.6124C19.4899 35.1724 19.9459 35.6044 20.5379 35.9084C21.1459 36.2124 21.8579 36.3644 22.6739 36.3644C23.2339 36.3644 23.7459 36.2764 24.2099 36.1004C24.6739 35.9244 25.1779 35.6204 25.7219 35.1884L27.3299 37.4684C26.8819 37.8684 26.3779 38.2124 25.8179 38.5004C25.2579 38.7884 24.6819 39.0044 24.0899 39.1484C23.4979 39.2924 22.9059 39.3644 22.3139 39.3644ZM31.5999 39.1244V23.2124H35.0079V39.1244H31.5999ZM29.2239 29.4764V26.4284H37.6239V29.4764H29.2239ZM39.7252 28.4684L38.6692 27.1964C39.3252 26.9244 39.8532 26.5884 40.2532 26.1884C40.6692 25.7724 40.8772 25.4204 40.8772 25.1324C40.8772 24.9564 40.8052 24.7884 40.6612 24.6284C40.5332 24.4524 40.3652 24.2924 40.1572 24.1484C39.7892 23.8604 39.5332 23.6044 39.3892 23.3804C39.2612 23.1404 39.1972 22.8844 39.1972 22.6124C39.1972 22.1484 39.3572 21.7804 39.6772 21.5084C40.0132 21.2364 40.4452 21.1004 40.9732 21.1004C41.4532 21.1004 41.8772 21.2284 42.2452 21.4844C42.6292 21.7244 42.9332 22.0684 43.1572 22.5164C43.3812 22.9484 43.4932 23.4524 43.4932 24.0284C43.4932 24.5084 43.3972 24.9804 43.2052 25.4444C43.0132 25.9084 42.7492 26.3404 42.4132 26.7404C42.0772 27.1404 41.6772 27.4924 41.2132 27.7964C40.7652 28.1004 40.2692 28.3244 39.7252 28.4684ZM50.4213 39.3644C49.2533 39.3644 48.2053 39.1724 47.2773 38.7884C46.3653 38.4044 45.6213 37.8604 45.0453 37.1564L47.1813 35.3324C47.6773 35.8604 48.2213 36.2444 48.8133 36.4844C49.4213 36.7084 50.0373 36.8204 50.6613 36.8204C50.8853 36.8204 51.0933 36.7964 51.2853 36.7484C51.4773 36.6844 51.6453 36.6044 51.7893 36.5084C51.9333 36.3964 52.0373 36.2684 52.1013 36.1244C52.1813 35.9804 52.2213 35.8124 52.2213 35.6204C52.2213 35.2684 52.0773 34.9964 51.7893 34.8044C51.6613 34.7084 51.4213 34.6044 51.0693 34.4924C50.7333 34.3644 50.3013 34.2284 49.7733 34.0844C48.9573 33.8764 48.2693 33.6364 47.7093 33.3644C47.1493 33.0764 46.6933 32.7484 46.3413 32.3804C46.0533 32.0764 45.8293 31.7244 45.6693 31.3244C45.5253 30.9244 45.4533 30.4844 45.4533 30.0044C45.4533 29.2364 45.6773 28.5644 46.1253 27.9884C46.5733 27.4124 47.1653 26.9644 47.9013 26.6444C48.6533 26.3244 49.4693 26.1644 50.3493 26.1644C51.0053 26.1644 51.6373 26.2444 52.2453 26.4044C52.8693 26.5644 53.4453 26.7964 53.9733 27.1004C54.5173 27.3884 54.9893 27.7324 55.3893 28.1324L53.5653 30.1724C53.2773 29.8844 52.9493 29.6364 52.5813 29.4284C52.2133 29.2044 51.8453 29.0284 51.4773 28.9004C51.1093 28.7564 50.7733 28.6844 50.4693 28.6844C50.1973 28.6844 49.9493 28.7084 49.7253 28.7564C49.5173 28.8044 49.3413 28.8844 49.1973 28.9964C49.0533 29.0924 48.9413 29.2124 48.8613 29.3564C48.7973 29.5004 48.7653 29.6604 48.7653 29.8364C48.7653 30.0124 48.8053 30.1804 48.8853 30.3404C48.9813 30.4844 49.1093 30.6204 49.2693 30.7484C49.4293 30.8444 49.6853 30.9564 50.0373 31.0844C50.4053 31.2124 50.8773 31.3564 51.4533 31.5164C52.2213 31.7244 52.8693 31.9564 53.3973 32.2124C53.9253 32.4684 54.3493 32.7644 54.6693 33.1004C54.9573 33.3884 55.1573 33.7244 55.2693 34.1084C55.3973 34.4764 55.4613 34.8764 55.4613 35.3084C55.4613 36.0924 55.2373 36.7964 54.7893 37.4204C54.3573 38.0284 53.7573 38.5084 52.9893 38.8604C52.2373 39.1964 51.3813 39.3644 50.4213 39.3644ZM58.3949 39.1244V22.3244H61.9949V39.1244H58.3949ZM60.0509 32.4524V29.3324H68.7629V32.4524H60.0509ZM60.0509 25.5644V22.3244H69.7709V25.5644H60.0509ZM78.1621 39.3644C76.8821 39.3644 75.7301 39.0844 74.7061 38.5244C73.6981 37.9484 72.8981 37.1644 72.3061 36.1724C71.7301 35.1804 71.4421 34.0524 71.4421 32.7884C71.4421 31.4924 71.7301 30.3484 72.3061 29.3564C72.8981 28.3644 73.6981 27.5884 74.7061 27.0284C75.7301 26.4524 76.8821 26.1644 78.1621 26.1644C79.4581 26.1644 80.6101 26.4524 81.6181 27.0284C82.6261 27.5884 83.4181 28.3644 83.9941 29.3564C84.5861 30.3484 84.8821 31.4924 84.8821 32.7884C84.8821 34.0524 84.5861 35.1804 83.9941 36.1724C83.4181 37.1644 82.6261 37.9484 81.6181 38.5244C80.6101 39.0844 79.4581 39.3644 78.1621 39.3644ZM78.1621 36.4124C78.8021 36.4124 79.3621 36.2524 79.8421 35.9324C80.3381 35.6124 80.7221 35.1804 80.9941 34.6364C81.2821 34.0924 81.4181 33.4764 81.4021 32.7884C81.4181 32.0684 81.2821 31.4364 80.9941 30.8924C80.7221 30.3324 80.3381 29.9004 79.8421 29.5964C79.3621 29.2764 78.8021 29.1164 78.1621 29.1164C77.5381 29.1164 76.9781 29.2764 76.4821 29.5964C75.9861 29.9164 75.5941 30.3484 75.3061 30.8924C75.0181 31.4364 74.8821 32.0684 74.8981 32.7884C74.8821 33.4764 75.0181 34.0924 75.3061 34.6364C75.5941 35.1804 75.9861 35.6124 76.4821 35.9324C76.9781 36.2524 77.5381 36.4124 78.1621 36.4124ZM93.3262 39.3644C92.0462 39.3644 90.8942 39.0844 89.8702 38.5244C88.8622 37.9484 88.0622 37.1644 87.4702 36.1724C86.8942 35.1804 86.6062 34.0524 86.6062 32.7884C86.6062 31.4924 86.8942 30.3484 87.4702 29.3564C88.0622 28.3644 88.8622 27.5884 89.8702 27.0284C90.8942 26.4524 92.0462 26.1644 93.3262 26.1644C94.6222 26.1644 95.7742 26.4524 96.7822 27.0284C97.7902 27.5884 98.5822 28.3644 99.1582 29.3564C99.7502 30.3484 100.046 31.4924 100.046 32.7884C100.046 34.0524 99.7502 35.1804 99.1582 36.1724C98.5822 37.1644 97.7902 37.9484 96.7822 38.5244C95.7742 39.0844 94.6222 39.3644 93.3262 39.3644ZM93.3262 36.4124C93.9662 36.4124 94.5262 36.2524 95.0062 35.9324C95.5022 35.6124 95.8862 35.1804 96.1582 34.6364C96.4462 34.0924 96.5822 33.4764 96.5662 32.7884C96.5822 32.0684 96.4462 31.4364 96.1582 30.8924C95.8862 30.3324 95.5022 29.9004 95.0062 29.5964C94.5262 29.2764 93.9662 29.1164 93.3262 29.1164C92.7022 29.1164 92.1422 29.2764 91.6462 29.5964C91.1502 29.9164 90.7582 30.3484 90.4702 30.8924C90.1822 31.4364 90.0462 32.0684 90.0622 32.7884C90.0462 33.4764 90.1822 34.0924 90.4702 34.6364C90.7582 35.1804 91.1502 35.6124 91.6462 35.9324C92.1422 36.2524 92.7022 36.4124 93.3262 36.4124ZM107.602 39.3644C106.498 39.3644 105.498 39.0844 104.602 38.5244C103.722 37.9644 103.026 37.1884 102.514 36.1964C102.018 35.1884 101.77 34.0524 101.77 32.7884C101.77 31.5084 102.018 30.3724 102.514 29.3804C103.026 28.3884 103.722 27.6044 104.602 27.0284C105.482 26.4524 106.482 26.1644 107.602 26.1644C108.194 26.1644 108.762 26.2604 109.306 26.4524C109.866 26.6284 110.362 26.8764 110.794 27.1964C111.226 27.5164 111.578 27.8764 111.85 28.2764C112.122 28.6604 112.282 29.0604 112.33 29.4764L111.466 29.6444V21.3644H114.85V39.1244H111.634L111.49 36.1964L112.162 36.2924C112.146 36.6764 112.01 37.0524 111.754 37.4204C111.498 37.7884 111.154 38.1244 110.722 38.4284C110.306 38.7164 109.826 38.9484 109.282 39.1244C108.754 39.2844 108.194 39.3644 107.602 39.3644ZM108.346 36.5324C109.002 36.5324 109.562 36.3724 110.026 36.0524C110.506 35.7324 110.882 35.2924 111.154 34.7324C111.426 34.1724 111.562 33.5244 111.562 32.7884C111.562 32.0364 111.426 31.3804 111.154 30.8204C110.882 30.2444 110.506 29.8044 110.026 29.5004C109.562 29.1804 109.002 29.0204 108.346 29.0204C107.722 29.0204 107.17 29.1804 106.69 29.5004C106.21 29.8044 105.834 30.2444 105.562 30.8204C105.306 31.3804 105.178 32.0364 105.178 32.7884C105.178 33.5244 105.306 34.1724 105.562 34.7324C105.834 35.2924 106.21 35.7324 106.69 36.0524C107.17 36.3724 107.722 36.5324 108.346 36.5324Z" fill="#1D1D1D"/>
<path d="M139.6 10.9594C140.083 10.9594 140.548 10.7684 140.892 10.4279C141.235 10.0874 141.431 9.62494 141.436 9.14108C141.44 8.65692 141.254 8.19048 140.916 7.84333C140.578 7.49617 140.117 7.29641 139.633 7.28752M139.441 14.6136C138.957 14.6137 138.493 14.4227 138.149 14.0822C137.805 13.7417 137.61 13.2792 137.605 12.7953C137.6 12.3112 137.787 11.8447 138.125 11.4976C138.462 11.1504 138.923 10.9507 139.407 10.9418M139.6 18.2855C140.083 18.2855 140.548 18.0945 140.892 17.754C141.235 17.4135 141.431 16.9511 141.436 16.4672C141.44 15.983 141.254 15.5166 140.916 15.1695C140.578 14.8223 140.117 14.6225 139.633 14.6136M146.943 10.9594C147.427 10.9594 147.892 10.7684 148.235 10.4279C148.579 10.0874 148.775 9.62494 148.779 9.14108C148.784 8.65692 148.597 8.19048 148.26 7.84333C147.922 7.49617 147.461 7.29641 146.977 7.28752M146.785 14.6136C146.301 14.6137 145.836 14.4227 145.493 14.0822C145.149 13.7417 144.953 13.2792 144.949 12.7953C144.944 12.3112 145.131 11.8447 145.468 11.4976C145.806 11.1504 146.267 10.9507 146.751 10.9418M146.943 18.2855C147.427 18.2855 147.892 18.0945 148.235 17.754C148.579 17.4135 148.775 16.9511 148.779 16.4672C148.784 15.983 148.597 15.5166 148.26 15.1695C147.922 14.8223 147.461 14.6225 146.977 14.6136M132.824 10.9594C133.308 10.9594 133.772 10.7684 134.116 10.4279C134.46 10.0874 134.656 9.62494 134.66 9.14108C134.665 8.65717 134.478 8.19095 134.141 7.84384C133.804 7.49672 133.343 7.29679 132.859 7.28752M132.667 14.6136C132.183 14.6137 131.719 14.4227 131.375 14.0822C131.031 13.7417 130.836 13.2792 130.831 12.7953C130.826 12.3114 131.013 11.8452 131.35 11.4981C131.687 11.151 132.148 10.951 132.632 10.9418M132.824 18.2855C133.308 18.2855 133.772 18.0945 134.116 17.754C134.46 17.4135 134.656 16.9511 134.66 16.4672C134.665 15.9833 134.478 15.5171 134.141 15.17C133.804 14.8228 133.343 14.6229 132.859 14.6136" stroke="#FAA41A" stroke-linecap="round" stroke-linejoin="round"/>
<path d="M133.54 39.9613H146.755V35.5903C143.94 36.8329 142.299 37.0268 140.017 37.0738C137.163 37.1325 135.229 36.639 133.54 36.216V39.9613Z" stroke="#383747" stroke-linecap="round" stroke-linejoin="round"/>
<path d="M156.781 24.137C154.313 33.352 144.883 38.8201 135.668 36.3511C132.743 35.5703 130.077 34.0322 127.936 31.892C125.796 29.7517 124.258 27.0849 123.477 24.1605L156.781 24.137Z" fill="#FAA41A" stroke="#383747" stroke-linecap="round" stroke-linejoin="round"/>
<path d="M123.468 21.1922H156.787V24.2163H123.468V21.1922Z" stroke="#383747" stroke-linecap="round" stroke-linejoin="round"/>
<path d="M144.99 21.1834C156.446 21.6357 153.566 13.4724 162.033 12.7351C162.87 12.6617 163.311 12.6455 164.486 12.7204L164.53 12.7057C163.069 11.8362 160.375 10.3646 158.126 10.9888C156.976 11.309 155.184 12.5457 153.984 14.903C150.963 21.5182 148.021 21.1702 145.627 21.1819L144.99 21.1834Z" stroke="#383747" stroke-linecap="round" stroke-linejoin="round"/>
<path d="M152.04 26.7323C151 29.9048 148.217 32.1079 144.985 32.7072" stroke="white" stroke-linecap="round" stroke-linejoin="round"/>
</svg>
