<svg width="21" height="20" viewBox="0 0 21 20" fill="none" xmlns="http://www.w3.org/2000/svg">
<path d="M19.7836 7.4653L13.8328 6.60045L11.1727 1.20748C11.1 1.05982 10.9805 0.940292 10.8328 0.867636C10.4625 0.684823 10.0125 0.837167 9.82734 1.20748L7.16719 6.60045L1.2164 7.4653C1.05234 7.48873 0.902342 7.56608 0.787498 7.68326C0.648658 7.82597 0.572151 8.01795 0.574788 8.21703C0.577425 8.41612 0.65899 8.60601 0.801561 8.74498L5.10703 12.9426L4.08984 18.87C4.06599 19.0079 4.08125 19.1497 4.13389 19.2793C4.18653 19.409 4.27444 19.5213 4.38766 19.6035C4.50088 19.6858 4.63487 19.7346 4.77445 19.7446C4.91403 19.7545 5.0536 19.7252 5.17734 19.6598L10.5 16.8614L15.8227 19.6598C15.968 19.7372 16.1367 19.763 16.2984 19.7348C16.7063 19.6645 16.9805 19.2778 16.9102 18.87L15.893 12.9426L20.1984 8.74498C20.3156 8.63014 20.393 8.48014 20.4164 8.31608C20.4797 7.90592 20.1938 7.52623 19.7836 7.4653Z" fill="#FFCB45"/>
</svg>
